<svg xmlns="http://www.w3.org/2000/svg" viewBox="0 0 36 45" x="0px" y="0px"><title>Монтажная область 65</title><path d="M14.3,18a5.66,5.66,0,1,0-8,0,9.59,9.59,0,0,0-3,2.05A8.79,8.79,0,0,0,.54,26.34v7.94A1.26,1.26,0,0,0,1.8,35.54h17A1.25,1.25,0,0,0,20,34.28V26.34A8.81,8.81,0,0,0,17.39,20,9.7,9.7,0,0,0,14.3,18Zm-4-7.12A3.15,3.15,0,1,1,7.13,14,3.15,3.15,0,0,1,10.27,10.85ZM17.53,33H3.06V26.34A6.31,6.31,0,0,1,5,21.81a7.45,7.45,0,0,1,5.3-2.15,7.47,7.47,0,0,1,5.32,2.17,6.3,6.3,0,0,1,1.92,4.51Z"/><path d="M35.4,6.57a1.09,1.09,0,0,0-.88-.74L30,5.16,27.91,1a1.07,1.07,0,0,0-1-.57h0A1.07,1.07,0,0,0,26,1l-2,4.13-4.57.67a1.09,1.09,0,0,0-.61,1.86L22,10.92l-.78,4.55a1.09,1.09,0,0,0,.43,1.06,1.11,1.11,0,0,0,1.15.09l4.09-2.15L31,16.62a1.13,1.13,0,0,0,.51.12,1.09,1.09,0,0,0,1.07-1.27l-.78-4.55,3.31-3.23A1.08,1.08,0,0,0,35.4,6.57ZM29.88,9.75a1.11,1.11,0,0,0-.31,1l.5,2.93-2.63-1.38a1.07,1.07,0,0,0-1,0l-2.63,1.38.5-2.93a1.09,1.09,0,0,0-.32-1L21.84,7.67l2.95-.43a1.09,1.09,0,0,0,.82-.59L26.93,4l1.32,2.67a1.08,1.08,0,0,0,.82.59l3,.43Z"/><text x="0" y="51" fill="#000000" font-size="5px" font-weight="bold" font-family="'Helvetica Neue', Helvetica, Arial-Unicode, Arial, Sans-serif"></text><text x="0" y="56" fill="#06425a" font-size="5px" font-weight="bold" font-family="'Helvetica Neue', Helvetica, Arial-Unicode, Arial, Sans-serif"></text></svg>